<?xml version="1.0" encoding="utf-8"?>
<!-- Generator: Adobe Illustrator 17.0.0, SVG Export Plug-In . SVG Version: 6.00 Build 0)  -->
<!DOCTYPE svg PUBLIC "-//W3C//DTD SVG 1.1//EN" "http://www.w3.org/Graphics/SVG/1.1/DTD/svg11.dtd">
<svg version="1.1" xmlns="http://www.w3.org/2000/svg" xmlns:xlink="http://www.w3.org/1999/xlink" x="0px" y="0px" width="3710px"
	 height="3710px" viewBox="0 0 3710 3710" enable-background="new 0 0 3710 3710" xml:space="preserve">
<g id="Background">
</g>
<g id="Illustration">
	<g>
		<g>
			<g opacity="0.3">
				<path fill="#91B3FA" d="M1743.268,2741.665c9.128-21.043,33.537-30.667,54.499-21.505
					c40.738,17.793,82.848,34.082,125.171,48.403c21.414,7.246,33.029,30.351,26.245,51.872c-0.08,0.255-0.16,0.51-0.244,0.773
					c-7.309,21.738-30.804,33.412-52.479,26.077c-44.545-15.078-88.881-32.218-131.763-50.956
					c-19.609-8.561-29.269-30.544-22.959-50.563C1742.173,2744.388,1742.673,2743.015,1743.268,2741.665z M2133.7,2824.1
					c43.852,8.399,88.475,14.992,132.673,19.604c22.73,2.371,39.263,22.789,36.903,45.612
					c-2.451,22.896-22.731,39.395-45.479,37.021c-46.496-4.848-93.471-11.787-139.613-20.615
					c-22.462-4.302-37.197-26.065-32.909-48.6c0.313-1.637,0.716-3.236,1.204-4.784
					C2092.718,2832.542,2112.87,2820.112,2133.7,2824.1z M2484.041,2851.123c44.492-1.602,89.451-5.164,133.66-10.599
					c22.694-2.79,43.354,13.416,46.136,36.184c2.752,22.752-13.368,43.481-36.069,46.286c-46.553,5.721-93.913,9.475-140.756,11.156
					c-22.854,0.823-42.04-17.102-42.872-40.027c-0.172-4.887,0.501-9.609,1.891-14.019
					C2451.163,2863.828,2466.06,2851.766,2484.041,2851.123z M2831.606,2798.855c43.064-11.55,86.122-25.119,127.994-40.307
					c21.508-7.796,45.249,3.37,53.022,24.941c7.752,21.582-3.381,45.382-24.86,53.195c-44.092,15.99-89.426,30.266-134.74,42.44
					c-22.088,5.925-44.794-7.234-50.701-29.396c-2.114-7.93-1.796-15.938,0.501-23.226
					C2806.946,2813.42,2817.425,2802.67,2831.606,2798.855z M3158.903,2670.208c39.334-20.809,78.345-43.603,115.919-67.762
					c19.268-12.371,44.873-6.739,57.208,12.576c12.347,19.329,6.724,45.024-12.542,57.384
					c-39.531,25.412-80.578,49.397-121.967,71.291c-20.221,10.705-45.269,2.929-55.935-17.373
					c-5.378-10.225-6.077-21.679-2.855-31.899C3141.902,2684.369,3148.866,2675.516,3158.903,2670.208z M3449.668,2472.113
					c33.826-29.061,66.819-59.94,98.078-91.788c16.044-16.346,42.269-16.551,58.552-0.459c16.301,16.099,16.511,42.393,0.463,58.753
					c-32.889,33.518-67.632,66.021-103.227,96.604c-17.375,14.918-43.505,12.891-58.386-4.535
					c-9.663-11.32-12.187-26.349-8.015-39.586C3439.384,2483.961,3443.573,2477.343,3449.668,2472.113z M4023.188,1040.782
					c22.7-2.754,43.335,13.478,46.077,36.26c5.614,46.661,9.271,94.208,10.865,141.297c0.777,22.934-17.122,42.154-39.979,42.926
					c-22.844,0.786-42.001-17.173-42.781-40.099c-1.514-44.712-4.994-89.855-10.331-134.165c-0.731-6.079-0.118-12.002,1.611-17.487
					C3993.396,1054.459,4006.539,1042.793,4023.188,1040.782z M3689.286,2214.439c26.521-35.861,51.814-73.312,75.164-111.33
					c12.009-19.531,37.521-25.605,56.985-13.567c19.478,12.044,25.421,37.587,13.515,57.168
					c-24.595,40.029-51.229,79.472-79.162,117.234c-13.627,18.422-39.559,22.279-57.93,8.604
					c-14.565-10.842-19.996-29.457-14.816-45.889C3684.39,2222.382,3686.474,2218.252,3689.286,2214.439z M4035.093,1402.649
					c22.736,2.414,39.22,22.876,36.812,45.694c-4.944,46.731-11.965,93.87-20.84,140.103c-4.231,22.571-26.046,37.263-48.498,32.931
					c-22.449-4.342-37.144-26.125-32.823-48.658c8.439-43.938,15.113-88.735,19.801-133.148c0.299-2.833,0.889-5.565,1.713-8.179
					C3997.071,1412.948,4015.184,1400.527,4035.093,1402.649z M3865.463,1909.558c17.843-40.887,34.163-83.081,48.496-125.432
					c7.344-21.734,30.856-33.361,52.52-25.986c21.369,7.282,32.943,30.357,26.169,51.847c-0.088,0.279-0.178,0.566-0.282,0.838
					c-15.074,44.591-32.25,89.018-51.023,132.051c-9.187,21.014-33.598,30.595-54.55,21.394
					c-19.565-8.59-29.186-30.543-22.885-50.533C3864.349,1912.337,3864.875,1910.939,3865.463,1909.558z"/>
				<path fill="#91B3FA" d="M3927.809,784.263c-2.458,7.798-2.662,16.406-0.054,24.814c6.343,20.453,12.352,41.378,17.9,62.202
					c5.889,22.163,28.587,35.348,50.675,29.43c22.099-5.906,35.266-28.679,29.329-50.851c-5.818-21.904-12.148-43.909-18.815-65.435
					c-6.785-21.904-29.999-34.154-51.823-27.344C3941.552,761.274,3931.76,771.731,3927.809,784.263z"/>
			</g>
			<g opacity="0.3">
				<path fill="#91B3FA" d="M3112.104-182.371c-6.026,19.117,2.488,40.327,20.919,49.613c19.078,9.602,38.281,19.771,57.057,30.221
					c20.004,11.129,45.207,3.885,56.297-16.176c11.136-20.149,3.865-45.357-16.125-56.482c-19.773-10.996-39.993-21.71-60.08-31.826
					c-20.439-10.29-45.323-2.008-55.585,18.495C3113.58-186.514,3112.76-184.451,3112.104-182.371z"/>
				<path fill="#91B3FA" d="M876.912,696.335c7.951-21.51,31.784-32.481,53.237-24.493c21.436,7.984,32.333,31.857,24.406,53.399
					c-15.148,40.951-28.785,83.188-40.722,126.008c-6.055,22.009-29.014,34.995-51.037,28.816
					c-22.023-6.179-34.882-29.1-28.731-51.197c5.171-18.553,10.629-36.947,16.374-55.172
					C858.636,747.694,867.538,721.663,876.912,696.335z M834.852,1015.056c22.643,3.132,38.478,24.096,35.352,46.82
					c-5.985,43.637-10.214,87.993-12.536,131.847c-1.142,22.886-20.705,40.498-43.546,39.284
					c-22.824-1.217-40.356-20.779-39.141-43.684c2.442-46.173,6.882-92.87,13.196-138.785c0.327-2.381,0.85-4.692,1.547-6.903
					C795.697,1024.69,814.564,1012.252,834.852,1015.056z M969.711,489.991c21.779-40.728,45.594-81.083,70.8-119.931
					c12.475-19.23,38.127-24.672,57.302-12.156c19.161,12.514,24.558,38.232,12.112,57.481
					c-23.945,36.891-46.557,75.202-67.23,113.88c-10.818,20.216-35.912,27.819-56.074,16.971
					c-17.824-9.596-25.8-30.414-19.913-49.088C967.474,494.719,968.468,492.319,969.711,489.991z M816.269,1370.857
					c22.781-1.937,42.831,15.027,44.75,37.888c3.694,43.824,9.309,88.009,16.671,131.328c3.857,22.634-11.299,44.077-33.855,47.933
					c-22.539,3.859-43.924-11.342-47.772-33.955c-7.756-45.623-13.666-92.157-17.56-138.299c-0.464-5.576,0.172-10.99,1.758-16.018
					C785.168,1384.161,799.047,1372.318,816.269,1370.857z M1176.207,189.403c30.156-34.903,62.226-68.996,95.324-101.341
					c16.378-16.01,42.581-15.669,58.541,0.756c15.974,16.436,15.623,42.739-0.757,58.748c-31.434,30.729-61.898,63.11-90.531,96.258
					c-14.983,17.338-41.138,19.208-58.418,4.177c-12.875-11.199-17.189-28.617-12.36-43.935
					C1169.659,198.822,1172.39,193.817,1176.207,189.403z M1443.406-58.464c37.121-27.512,75.833-53.769,115.056-78.051
					c19.472-12.041,44.975-5.983,56.988,13.545c12.021,19.557,5.974,45.143-13.506,57.163
					c-37.267,23.073-74.056,48.028-109.337,74.166c-18.395,13.634-44.321,9.721-57.911-8.733
					c-8.181-11.123-10.018-24.99-6.158-37.235C1431.083-45.687,1436.101-53.054,1443.406-58.464z M1758.108-242.03
					c42.233-18.758,85.731-35.933,129.26-51.054c21.62-7.504,45.189,3.989,52.676,25.666c7.491,21.71-3.98,45.344-25.582,52.846
					c-41.373,14.36-82.686,30.686-122.829,48.516c-20.91,9.287-45.37-0.192-54.62-21.168c-4.256-9.639-4.564-20.015-1.627-29.33
					C1738.844-227.523,1746.803-237.006,1758.108-242.03z M2105.224-352.348c45.295-9.039,91.501-16.24,137.335-21.397
					c22.724-2.56,43.219,13.849,45.767,36.655c2.546,22.762-13.817,43.346-36.541,45.906
					c-43.513,4.898-87.383,11.735-130.415,20.325c-22.428,4.475-44.221-10.132-48.679-32.634
					c-1.407-7.109-0.919-14.145,1.115-20.598C2078.212-338.07,2089.872-349.278,2105.224-352.348z M2468.209-383.461
					c46.054,1.193,92.667,4.384,138.559,9.482c22.733,2.525,39.127,23.061,36.605,45.865c-2.517,22.731-22.974,39.243-45.708,36.719
					c-43.596-4.846-87.868-7.872-131.615-9.014c-22.853-0.588-40.909-19.668-40.313-42.599c0.103-3.993,0.758-7.844,1.902-11.473
					C2433.062-371.686,2449.33-383.952,2468.209-383.461z M2828.767-333.905c32.933,8.271,66.021,17.664,98.329,27.915
					c11.705,3.714,23.321,7.544,34.885,11.494c21.638,7.392,33.732,30.862,25.846,52.706c-7.356,21.722-30.883,33.337-52.54,25.946
					c-10.982-3.747-22.043-7.402-33.162-10.93c-30.722-9.747-62.157-18.676-93.471-26.542
					c-22.181-5.567-35.662-28.131-30.106-50.383c0.213-0.835,0.44-1.664,0.696-2.477
					C2785.791-326.946,2807.421-339.273,2828.767-333.905z"/>
				<path fill="#91B3FA" d="M849.511,1750.121c-2.483,7.876-2.659,16.558,0.001,25.02c6.76,21.445,14.1,43.15,21.818,64.515
					c7.789,21.576,31.534,32.728,53.032,24.911c21.5-7.823,32.631-31.617,24.83-53.205c-7.327-20.297-14.297-40.915-20.721-61.273
					c-6.882-21.867-30.149-33.998-51.957-27.082C863.148,1727.252,853.437,1737.667,849.511,1750.121z"/>
			</g>
			<g>
				<g>
					<path fill="#91B3FA" d="M1479.128,2079.058c4.53,6.929,12.934,10.214,20.939,8.179l228.339-58.003
						c79.682,76.082,172.027,139.963,274.663,187.87l29.746,234.267c1.045,8.218,7.171,14.863,15.254,16.553l276.594,57.797
						c8.084,1.693,16.348-1.952,20.57-9.064l120.501-202.873c113.165-2.81,223.258-24.388,326.589-62.229l186.265,144.64
						c6.531,5.068,15.547,5.424,22.452,0.885l236.321-155.35c6.904-4.538,10.183-12.977,8.153-21.007l-57.817-229.081
						c75.838-79.939,139.514-172.586,187.261-275.561l233.505-29.844c8.192-1.047,14.819-7.189,16.5-15.3l57.614-277.501
						c1.682-8.111-1.95-16.396-9.04-20.636l-202.215-120.895c-2.799-113.535-24.308-223.986-62.029-327.653l144.174-186.873
						c5.052-6.55,5.412-15.596,0.882-22.525l-154.845-237.092c-4.523-6.927-12.935-10.211-20.933-8.181l-228.344,58.007
						c-79.677-76.086-172.023-139.963-274.663-187.87l-29.748-234.267c-1.04-8.218-7.166-14.867-15.249-16.555l-276.6-57.799
						c-8.084-1.688-16.344,1.953-20.569,9.068l-120.502,202.873c-113.165,2.81-223.259,24.389-326.589,62.229l-186.265-144.64
						c-6.526-5.072-15.542-5.428-22.453-0.886l-236.32,155.352c-6.905,4.54-10.179,12.975-8.153,21.004l57.818,229.084
						c-75.838,79.939-139.509,172.587-187.262,275.56l-233.505,29.843c-8.184,1.049-14.813,7.191-16.499,15.302l-57.609,277.499
						c-1.682,8.109,1.944,16.398,9.04,20.638l202.209,120.892c2.801,113.536,24.315,223.985,62.029,327.653l-144.172,186.874
						c-5.054,6.549-5.407,15.598-0.883,22.524L1479.128,2079.058z"/>
				</g>
				<g>
					<path fill="#BDD0FB" d="M2183.919,1153.806c68.489-141.281,238.761-200.334,379.601-131.623
						c68.224,33.278,119.442,91.227,144.216,163.157c24.78,71.916,20.173,149.228-13.025,217.673
						c-68.489,141.283-238.763,200.334-379.602,131.625c-128.121-62.513-188.392-209.544-146.648-341.969
						C2172.6,1179.54,2177.748,1166.545,2183.919,1153.806z M2645.115,1207.049c-19.001-55.155-58.266-99.576-110.58-125.101
						c-107.965-52.67-238.54-7.402-291.041,100.922c-52.558,108.34-7.379,239.318,100.598,292
						c107.964,52.67,238.54,7.402,291.043-100.922c4.759-9.825,8.74-19.87,11.965-30.098
						C2661.1,1299.439,2660.553,1251.875,2645.115,1207.049z"/>
				</g>
				<path fill="#BDD0FB" d="M1779.119,1063.025c-7.169,22.743-13.24,45.981-18.157,69.652l0,0
					c-1.551,7.448-2.975,14.927-4.286,22.426c-6.447,36.972-9.95,74.401-10.462,111.706c-0.007,0.508-0.015,1.017-0.024,1.524
					c-0.013,1.442-0.027,2.884-0.025,4.332c-0.021,2.81-0.007,5.622,0.007,8.427c0.047,7.384,4.887,13.609,11.547,15.731
					c1.619,0.514,3.349,0.782,5.135,0.77c9.146-0.061,16.483-7.569,16.437-16.731c-0.331-47.223,4.417-94.794,14.105-141.398
					c48.025-231.519,210.974-410.049,416.579-488.193c114.355-43.479,241.916-55.886,370.258-29.06
					c22.507,4.698,44.613,10.504,66.232,17.372c145.513,46.187,269.733,140.393,354.502,270.197
					c97.382,149.098,131.061,327.323,94.831,501.826c-74.859,360.394-427.78,592.286-786.838,517.253
					c-22.139-4.625-43.963-10.359-65.381-17.163c-92.819-29.468-178.181-78.984-249.783-145.296
					c-1.852-1.712-3.981-2.922-6.235-3.63c-5.922-1.879-12.672-0.319-17.165,4.571c-6.187,6.766-5.812,17.252,0.942,23.486
					c75.174,69.617,164.793,121.615,262.237,152.55c22.482,7.142,45.386,13.158,68.622,18.02
					c376.979,78.78,747.539-164.936,826.036-543.007c38.038-183.204,2.675-370.294-99.557-526.82
					c-88.99-136.274-219.4-235.168-372.159-283.663c-22.701-7.203-45.904-13.296-69.521-18.238
					c-182.619-38.156-369.106-2.688-525.12,99.87C1926.022,778.845,1827.442,909.728,1779.119,1063.025z"/>
			</g>
		</g>
		<g>
			<g opacity="0.3">
				<path fill="#91B3FA" d="M275.252,3767.316c-3.336,10.583,0.472,22.515,10.13,29.021c18.016,12.153,36.649,23.926,55.376,34.981
					c12.169,7.184,27.832,3.115,35.011-9.102c7.223-12.202,3.096-27.938-9.072-35.125c-17.845-10.535-35.603-21.754-52.8-33.349
					c-11.706-7.904-27.596-4.773-35.493,6.979C277.011,3762.815,275.971,3765.034,275.252,3767.316z"/>
				<path fill="#91B3FA" d="M448.821,3859.453c5.616-13,20.656-18.99,33.629-13.361c32.725,14.18,66.556,26.846,100.538,37.628
					c7.167,2.274,14.387,4.47,21.651,6.606c13.539,3.994,21.307,18.246,17.334,31.845c-4.268,12.706-18.186,21.377-31.758,17.399
					c-7.598-2.241-15.15-4.543-22.65-6.923c-35.623-11.303-71.095-24.581-105.409-39.465c-12.146-5.258-18.153-18.86-14.245-31.258
					C448.17,3861.101,448.482,3860.28,448.821,3859.453z M731.262,3919.321c42.646,7.053,86.108,11.527,129.172,13.272
					c14.12,0.578,25.081,12.503,24.517,26.673c-0.588,14.084-12.467,25.177-26.587,24.6c-45.134-1.826-90.702-6.508-135.415-13.913
					c-13.939-2.307-23.374-15.511-21.086-29.502c0.203-1.222,0.505-2.428,0.87-3.586
					C706.507,3924.895,718.563,3917.224,731.262,3919.321z M990.292,3929.724c43.003-3.635,86.223-10.026,128.497-18.99
					c13.807-2.926,27.385,5.941,30.3,19.797c2.922,13.909-5.888,27.486-19.727,30.415c-44.323,9.406-89.677,16.092-134.761,19.92
					c-14.072,1.186-26.461-9.289-27.644-23.408c-0.275-3.44,0.121-6.783,1.1-9.888
					C971.09,3937.953,979.657,3930.634,990.292,3929.724z M1243.959,3875.958c40.863-14.128,81.235-30.936,119.92-49.948
					c12.704-6.23,28.018-0.965,34.219,11.764c6.187,12.698,0.969,28.085-11.711,34.325c-40.6,19.941-82.903,37.554-125.766,52.377
					c-13.35,4.621-27.917-2.512-32.522-15.906c-1.834-5.404-1.798-11-0.201-16.067
					C1230.259,3885.015,1235.99,3878.712,1243.959,3875.958z M1476.855,3761.689c36.195-23.663,71.254-49.792,104.246-77.666
					c10.787-9.126,26.928-7.737,36.033,3.101c9.104,10.838,7.747,27.03-3.092,36.153c-34.566,29.216-71.33,56.601-109.25,81.415
					c-11.839,7.727-27.681,4.382-35.387-7.481c-4.356-6.705-5.19-14.696-2.961-21.768
					C1468.164,3769.983,1471.706,3765.063,1476.855,3761.689z M1675.043,3594.164c29.341-31.753,56.969-65.638,82.127-100.742
					c8.236-11.499,24.229-14.124,35.687-5.851c11.458,8.275,14.07,24.254,5.841,35.819c-26.376,36.806-55.37,72.361-86.146,105.67
					c-9.61,10.379-25.785,11.003-36.134,1.374c-7.492-6.976-9.89-17.408-7.002-26.57
					C1670.519,3600.363,1672.38,3597.038,1675.043,3594.164z M1826.312,3383.187c20.612-37.886,39.125-77.581,55.008-117.993
					c5.199-13.173,20.049-19.643,33.182-14.437c13.135,5.19,19.391,20.001,14.415,33.295c-16.679,42.353-36.084,83.973-57.7,123.71
					c-6.774,12.436-22.312,17.019-34.71,10.233c-10.903-5.968-15.747-18.766-12.132-30.232
					C1824.863,3386.209,1825.501,3384.676,1826.312,3383.187z M1974.902,2991.25c14.008,1.842,23.86,14.718,22.023,28.774
					c-5.083,38.896-12.386,78.179-21.658,116.656c-1.377,5.857-2.839,11.661-4.329,17.469
					c-3.129,13.749-17.504,21.959-31.198,18.365c-13.675-3.564-21.86-17.566-18.319-31.292c1.424-5.436,2.78-10.904,4.096-16.49
					c8.886-36.825,15.851-74.298,20.705-111.387c0.195-1.529,0.531-3.012,0.975-4.422
					C1950.868,2997.276,1962.428,2989.604,1974.902,2991.25z"/>
			</g>
			<g opacity="0.3">
				<path fill="#91B3FA" d="M-146.814,2527.497c13.988-42.459,30.699-84.419,49.618-124.749
					c6.027-12.805,21.255-18.315,34.044-12.271c12.792,6.042,18.098,21.364,12.232,34.155
					c-18.063,38.445-33.984,78.477-47.329,118.984c-4.424,13.457-18.905,20.754-32.304,16.306
					c-13.301-4.417-20.576-18.735-16.366-32.09C-146.886,2527.724-146.848,2527.604-146.814,2527.497z M-151.002,2637.343
					c13.837,2.802,22.799,16.34,19.995,30.222c-8.405,41.784-14.378,84.498-17.733,126.967
					c-1.15,14.038-13.434,24.672-27.536,23.534c-14.081-1.117-24.567-13.47-23.465-27.601c3.525-44.503,9.777-89.271,18.603-133.052
					c0.187-0.925,0.413-1.812,0.692-2.698C-176.561,2642.387-163.953,2634.719-151.002,2637.343z M-32.775,2284.89
					c23.818-37.828,50.132-74.521,78.225-109.049c8.934-10.976,25.061-12.611,35.989-3.651c10.956,8.955,12.558,25.061,3.658,36.098
					c-26.809,32.936-51.905,67.928-74.646,104.009c-7.548,11.981-23.343,15.551-35.263,7.996
					c-10.042-6.367-14.157-18.577-10.737-29.424C-34.903,2288.814-33.983,2286.808-32.775,2284.89z M-177.68,2898.142
					c14.106-0.621,26.044,10.365,26.664,24.518c1.85,42.581,6.329,85.46,13.333,127.469c2.304,13.963-7.104,27.191-20.993,29.539
					c-13.938,2.333-27.126-7.096-29.452-21.077c-7.357-44.053-12.062-89.042-13.99-133.698c-0.126-3.089,0.291-6.07,1.167-8.852
					C-197.803,2906.055-188.705,2898.627-177.68,2898.142z M136.266,2077.199c32.111-30.901,66.451-60.148,102.064-86.954
					c11.299-8.503,27.337-6.2,35.813,5.135c8.478,11.337,6.21,27.423-5.117,35.93c-33.986,25.549-66.723,53.45-97.339,82.933
					c-10.19,9.802-26.379,9.475-36.167-0.768c-6.701-7-8.648-16.855-5.918-25.516
					C130.847,2084.008,133.067,2080.283,136.266,2077.199z M350.066,1916.232c38.631-22.329,78.963-42.5,119.854-59.959
					c12.988-5.548,27.997,0.514,33.526,13.555c5.536,13.018-0.504,28.104-13.518,33.66c-38.988,16.655-77.459,35.907-114.327,57.215
					c-12.236,7.076-27.877,2.85-34.929-9.427c-3.719-6.487-4.308-13.929-2.218-20.558
					C340.314,1924.816,344.303,1919.564,350.066,1916.232z M596.149,1811.244c42.864-12.417,86.865-22.291,130.746-29.366
					c13.961-2.244,27.07,7.276,29.31,21.27c2.247,13.985-7.27,27.141-21.185,29.4c-41.858,6.732-83.807,16.154-124.663,28.013
					c-13.575,3.93-27.76-3.921-31.667-17.539c-1.47-5.052-1.296-10.175,0.172-14.832
					C581.355,1820.282,587.612,1813.725,596.149,1811.244z"/>
				<path fill="#91B3FA" d="M-157.577,3175.727c-1.487,4.719-1.631,9.916-0.123,15.02c6.225,21.054,13.107,42.014,20.433,62.314
					c4.816,13.315,19.482,20.215,32.765,15.39c13.239-4.855,20.121-19.541,15.338-32.872c-6.996-19.354-13.553-39.357-19.506-59.445
					c-4.019-13.587-18.266-21.325-31.796-17.29C-148.912,3161.369-155.103,3167.879-157.577,3175.727z"/>
			</g>
			<g>
				<g>
					<path fill="#91B3FA" d="M267.455,3413.989c3.032,4.635,8.655,6.834,14.012,5.474l152.795-38.813
						c53.319,50.91,115.112,93.654,183.792,125.711l19.906,156.762c0.699,5.499,4.797,9.945,10.206,11.077l185.084,38.673
						c5.409,1.135,10.939-1.306,13.764-6.063l80.633-135.755c75.726-1.88,149.395-16.317,218.539-41.639l124.64,96.785
						c4.37,3.394,10.403,3.629,15.024,0.593l158.134-103.954c4.621-3.036,6.814-8.683,5.456-14.057l-38.688-153.288
						c50.747-53.492,93.355-115.489,125.307-184.396l156.251-19.968c5.481-0.702,9.915-4.812,11.041-10.238l38.552-185.692
						c1.126-5.428-1.306-10.971-6.05-13.808l-135.313-80.898c-1.874-75.974-16.265-149.882-41.508-219.25l96.476-125.048
						c3.38-4.382,3.62-10.437,0.59-15.071l-103.617-158.653c-3.027-4.634-8.654-6.831-14.007-5.472l-152.798,38.815
						c-53.315-50.912-115.108-93.659-183.791-125.714l-19.906-156.762c-0.695-5.498-4.794-9.947-10.204-11.077l-185.088-38.677
						c-5.408-1.13-10.934,1.307-13.763,6.069l-80.632,135.753c-75.726,1.88-149.396,16.32-218.539,41.642l-124.64-96.787
						c-4.367-3.393-10.4-3.631-15.024-0.593l-158.134,103.953c-4.622,3.039-6.812,8.684-5.458,14.057l38.689,153.292
						c-50.747,53.492-93.352,115.487-125.306,184.393l-156.251,19.969c-5.479,0.702-9.913,4.812-11.041,10.24l-38.549,185.69
						c-1.126,5.426,1.302,10.973,6.049,13.808l135.308,80.897c1.874,75.973,16.271,149.881,41.508,219.25l-96.473,125.049
						c-3.382,4.381-3.618,10.437-0.591,15.071L267.455,3413.989z"/>
				</g>
				<g>
					<path fill="#BDD0FB" d="M735.998,2793.37c22.588-46.641,61.936-81.645,110.783-98.574
						c48.822-16.939,101.314-13.78,147.786,8.901c95.919,46.792,135.916,162.972,89.375,259.424
						c-46.678,96.233-162.665,136.445-258.558,89.647c-46.474-22.668-81.367-62.135-98.247-111.129
						c-13.718-39.829-14.201-82.083-1.761-121.548C728.234,2811.022,731.784,2802.084,735.998,2793.37z M972.214,2749.847
						c-34.193-16.683-72.8-19.011-108.738-6.552c-35.909,12.454-64.854,38.211-81.478,72.5l0,0
						c-16.579,34.317-18.933,73.029-6.514,109.084c12.399,36.033,38.088,65.063,72.253,81.738
						c70.561,34.425,155.875,4.847,190.209-65.935c3.088-6.393,5.663-12.894,7.738-19.477
						C1066.601,2854.85,1036.394,2781.157,972.214,2749.847z"/>
				</g>
				<path fill="#BDD0FB" d="M454.256,2730.204c-4.88,15.481-9.01,31.332-12.395,47.55c-6.696,32.211-10.134,65.137-10.209,97.949
					c0.008,1.474,0.015,2.949,0.022,4.423c0.072,11.403,7.546,21.014,17.83,24.29c2.499,0.793,5.172,1.208,7.927,1.189
					c14.122-0.094,25.429-11.695,25.38-25.836c-0.22-30.635,2.862-61.427,9.126-91.528l0.004-0.012
					c0.339-1.653,0.705-3.309,1.063-4.946c15.472-71.104,48.025-135.646,94.263-189.264c25.101-29.102,54.268-54.985,86.982-76.917
					c0.266-0.179,0.531-0.356,0.797-0.535c0.827-0.54,1.628-1.088,2.448-1.615c96.213-63.237,211.212-85.119,323.816-61.584
					c14.577,3.035,28.873,6.796,42.875,11.238c94.2,29.901,174.615,90.895,229.511,174.929
					c63.034,96.528,84.819,211.897,61.365,324.855c-23.482,112.885-89.359,210.018-185.552,273.277
					c-96.211,63.238-211.212,85.118-323.816,61.584c-14.33-2.983-28.457-6.704-42.315-11.101
					c-60.101-19.083-115.352-51.131-161.7-94.06c-2.86-2.643-6.146-4.515-9.627-5.606c-9.144-2.901-19.57-0.494-26.507,7.055
					c-9.551,10.438-8.946,26.637,1.456,36.269c51.864,48.029,113.691,83.9,180.906,105.254c15.525,4.926,31.32,9.084,47.345,12.433
					c125.999,26.326,254.653,1.853,362.3-68.914c107.622-70.761,181.425-179.243,207.591-305.716
					c26.248-126.394,1.867-255.464-68.684-363.456c-61.389-94.02-151.363-162.249-256.754-195.702
					c-15.645-4.964-31.658-9.178-47.949-12.584C767.837,2352.17,527.824,2496.82,454.256,2730.204z"/>
			</g>
		</g>
	</g>
</g>
</svg>
